<svg xmlns="http://www.w3.org/2000/svg" fill="none" viewBox="0 0 18 18"><path fill="url(#telegram_svg__a)" fill-rule="evenodd" d="M9 18A9 9 0 1 0 9 0a9 9 0 0 0 0 18M4.078 8.878l8.625-3.384c.375-.15.706.062.581.562l.003-.003-1.54 7.3c-.1.419-.375.538-.75.325l-2.138-1.584-1.028.984c-.112.113-.206.206-.425.206l.15-2.175 3.947-3.584c.175-.15-.037-.24-.262-.09L6.42 10.53 4.329 9.87c-.406-.125-.412-.438.094-.619z" clip-rule="evenodd" opacity=".8"/><defs><linearGradient id="telegram_svg__a" x1="9" x2="9" y1="0" y2="18" gradientUnits="userSpaceOnUse"><stop stop-color="#C9CBCF"/><stop offset="1" stop-color="#C9CBCF" stop-opacity=".7"/></linearGradient></defs></svg>